<svg width="62" height="29" viewBox="0 0 62 29" fill="none" xmlns="http://www.w3.org/2000/svg">
<path d="M6.404 3.38C5.132 3.284 4.496 3.794 4.496 4.91V5H6.404V7.232H4.496V14H2.174V7.232H0.878V5H2.174V4.91C2.174 3.638 2.528 2.672 3.236 2.012C3.944 1.352 5 1.064 6.404 1.148V3.38ZM13.4083 5H15.7303V14H13.4083V12.992C12.8443 13.832 11.9503 14.252 10.7263 14.252C9.74225 14.252 8.92625 13.922 8.27825 13.262C7.64225 12.602 7.32425 11.69 7.32425 10.526V5H9.64625V10.238C9.64625 10.838 9.80825 11.3 10.1323 11.624C10.4563 11.936 10.8883 12.092 11.4283 12.092C12.0283 12.092 12.5083 11.906 12.8683 11.534C13.2283 11.162 13.4083 10.604 13.4083 9.86V5ZM22.8609 4.748C23.8449 4.748 24.6549 5.078 25.2909 5.738C25.9389 6.398 26.2629 7.31 26.2629 8.474V14H23.9409V8.762C23.9409 8.162 23.7789 7.706 23.4549 7.394C23.1309 7.07 22.6989 6.908 22.1589 6.908C21.5589 6.908 21.0789 7.094 20.7189 7.466C20.3589 7.838 20.1789 8.396 20.1789 9.14V14H17.8569V5H20.1789V6.008C20.7429 5.168 21.6369 4.748 22.8609 4.748ZM35.0676 1.4H37.3896V14H35.0676V12.938C34.3836 13.814 33.4116 14.252 32.1516 14.252C30.9396 14.252 29.9016 13.796 29.0376 12.884C28.1856 11.96 27.7596 10.832 27.7596 9.5C27.7596 8.168 28.1856 7.046 29.0376 6.134C29.9016 5.21 30.9396 4.748 32.1516 4.748C33.4116 4.748 34.3836 5.186 35.0676 6.062V1.4ZM30.7836 11.336C31.2636 11.804 31.8636 12.038 32.5836 12.038C33.3036 12.038 33.8976 11.804 34.3656 11.336C34.8336 10.856 35.0676 10.244 35.0676 9.5C35.0676 8.756 34.8336 8.15 34.3656 7.682C33.8976 7.202 33.3036 6.962 32.5836 6.962C31.8636 6.962 31.2636 7.202 30.7836 7.682C30.3156 8.15 30.0816 8.756 30.0816 9.5C30.0816 10.244 30.3156 10.856 30.7836 11.336ZM17.1136 27.252C15.7576 27.252 14.6236 26.796 13.7116 25.884C12.8116 24.972 12.3616 23.844 12.3616 22.5C12.3616 21.156 12.8116 20.028 13.7116 19.116C14.6236 18.204 15.7576 17.748 17.1136 17.748C17.9896 17.748 18.7876 17.958 19.5076 18.378C20.2276 18.798 20.7736 19.362 21.1456 20.07L19.1476 21.24C18.9676 20.868 18.6916 20.574 18.3196 20.358C17.9596 20.142 17.5516 20.034 17.0956 20.034C16.3996 20.034 15.8236 20.268 15.3676 20.736C14.9116 21.192 14.6836 21.78 14.6836 22.5C14.6836 23.208 14.9116 23.796 15.3676 24.264C15.8236 24.72 16.3996 24.948 17.0956 24.948C17.5636 24.948 17.9776 24.846 18.3376 24.642C18.7096 24.426 18.9856 24.132 19.1656 23.76L21.1816 24.912C20.7856 25.62 20.2276 26.19 19.5076 26.622C18.7876 27.042 17.9896 27.252 17.1136 27.252ZM29.109 18H31.431V27H29.109V25.938C28.413 26.814 27.435 27.252 26.175 27.252C24.975 27.252 23.943 26.796 23.079 25.884C22.227 24.96 21.801 23.832 21.801 22.5C21.801 21.168 22.227 20.046 23.079 19.134C23.943 18.21 24.975 17.748 26.175 17.748C27.435 17.748 28.413 18.186 29.109 19.062V18ZM24.825 24.336C25.293 24.804 25.887 25.038 26.607 25.038C27.327 25.038 27.921 24.804 28.389 24.336C28.869 23.856 29.109 23.244 29.109 22.5C29.109 21.756 28.869 21.15 28.389 20.682C27.921 20.202 27.327 19.962 26.607 19.962C25.887 19.962 25.293 20.202 24.825 20.682C24.357 21.15 24.123 21.756 24.123 22.5C24.123 23.244 24.357 23.856 24.825 24.336ZM39.4766 18H41.7986V27H39.4766V25.992C38.9126 26.832 38.0186 27.252 36.7946 27.252C35.8106 27.252 34.9946 26.922 34.3466 26.262C33.7106 25.602 33.3926 24.69 33.3926 23.526V18H35.7146V23.238C35.7146 23.838 35.8766 24.3 36.2006 24.624C36.5246 24.936 36.9566 25.092 37.4966 25.092C38.0966 25.092 38.5766 24.906 38.9366 24.534C39.2966 24.162 39.4766 23.604 39.4766 22.86V18ZM45.997 20.556C45.997 20.796 46.153 20.994 46.465 21.15C46.789 21.294 47.179 21.426 47.635 21.546C48.091 21.654 48.547 21.798 49.003 21.978C49.459 22.146 49.843 22.434 50.155 22.842C50.479 23.25 50.641 23.76 50.641 24.372C50.641 25.296 50.293 26.01 49.597 26.514C48.913 27.006 48.055 27.252 47.023 27.252C45.175 27.252 43.915 26.538 43.243 25.11L45.259 23.976C45.523 24.756 46.111 25.146 47.023 25.146C47.851 25.146 48.265 24.888 48.265 24.372C48.265 24.132 48.103 23.94 47.779 23.796C47.467 23.64 47.083 23.502 46.627 23.382C46.171 23.262 45.715 23.112 45.259 22.932C44.803 22.752 44.413 22.47 44.089 22.086C43.777 21.69 43.621 21.198 43.621 20.61C43.621 19.722 43.945 19.026 44.593 18.522C45.253 18.006 46.069 17.748 47.041 17.748C47.773 17.748 48.439 17.916 49.039 18.252C49.639 18.576 50.113 19.044 50.461 19.656L48.481 20.736C48.193 20.124 47.713 19.818 47.041 19.818C46.741 19.818 46.489 19.884 46.285 20.016C46.093 20.148 45.997 20.328 45.997 20.556ZM53.9732 23.454C54.2852 24.582 55.1312 25.146 56.5112 25.146C57.3992 25.146 58.0712 24.846 58.5272 24.246L60.3992 25.326C59.5112 26.61 58.2032 27.252 56.4752 27.252C54.9872 27.252 53.7932 26.802 52.8932 25.902C51.9932 25.002 51.5432 23.868 51.5432 22.5C51.5432 21.144 51.9872 20.016 52.8752 19.116C53.7632 18.204 54.9032 17.748 56.2952 17.748C57.6152 17.748 58.7012 18.204 59.5532 19.116C60.4172 20.028 60.8492 21.156 60.8492 22.5C60.8492 22.8 60.8192 23.118 60.7592 23.454H53.9732ZM53.9372 21.654H58.5272C58.3952 21.042 58.1192 20.586 57.6992 20.286C57.2912 19.986 56.8232 19.836 56.2952 19.836C55.6712 19.836 55.1552 19.998 54.7472 20.322C54.3392 20.634 54.0692 21.078 53.9372 21.654Z" fill="#6ACDA5"/>
<path d="M8.402 18H10.724V27H8.402V25.938C7.706 26.814 6.728 27.252 5.468 27.252C4.268 27.252 3.236 26.796 2.372 25.884C1.52 24.96 1.094 23.832 1.094 22.5C1.094 21.168 1.52 20.046 2.372 19.134C3.236 18.21 4.268 17.748 5.468 17.748C6.728 17.748 7.706 18.186 8.402 19.062V18ZM4.118 24.336C4.586 24.804 5.18 25.038 5.9 25.038C6.62 25.038 7.214 24.804 7.682 24.336C8.162 23.856 8.402 23.244 8.402 22.5C8.402 21.756 8.162 21.15 7.682 20.682C7.214 20.202 6.62 19.962 5.9 19.962C5.18 19.962 4.586 20.202 4.118 20.682C3.65 21.15 3.416 21.756 3.416 22.5C3.416 23.244 3.65 23.856 4.118 24.336Z" fill="#2F80ED"/>
<path d="M50.289 12.9374C49.1717 13.0367 48.2635 13.1399 47.5003 13.2645C45.1824 13.6428 44.2456 14.2864 43.1783 15.5986C43.0001 15.8142 42.672 15.8236 42.4845 15.6267L39.6393 12.7519C39.4797 12.5923 39.4527 12.3389 39.5819 12.1537C39.9397 11.6404 40.3363 11.167 40.7667 10.7407C41.6183 9.78531 42.5043 9.1046 43.3387 8.64314C43.8652 8.352 44.4591 8.20487 45.0607 8.20487H47.8441C48.6949 8.20487 49.4134 8.77155 49.6427 9.54805C49.7166 9.79841 49.5468 10.0626 49.2863 10.079C49.2762 10.0796 49.2659 10.0799 49.2556 10.0799H45.1673C44.9123 10.0799 44.6954 10.2791 44.6879 10.5339C44.68 10.8034 44.889 11.0175 45.1565 11.0175H49.8442C49.9848 11.0175 50.116 10.9519 50.2098 10.8487C50.3298 10.7246 50.9012 9.87675 51.9904 8.96015C52.6961 8.36619 54.391 7.26733 55.0319 7.26733C55.435 7.26733 55.6506 7.74548 55.3788 8.04546L51.1286 12.7332C51.0535 12.8269 50.9317 12.8832 50.8099 12.8926C50.6313 12.9075 50.4578 12.9224 50.289 12.9374Z" fill="#2F80ED"/>
<path d="M50.3132 1.2104C51.6971 -0.644739 54.5321 0.322894 54.5321 2.58349C54.5321 4.12614 52.9854 5.21 51.5743 6.30942C50.0858 7.46906 50.536 7.4655 49.052 6.30942C47.4985 5.09903 46.0942 4.0728 46.0942 2.58349C46.0942 0.324145 48.928 -0.646364 50.3132 1.2104Z" fill="#6FCF97"/>
</svg>
