<svg width="141" height="50" viewBox="0 0 141 50" fill="none" xmlns="http://www.w3.org/2000/svg">
<g clip-path="url(#clip0)">
<path fill-rule="evenodd" clip-rule="evenodd" d="M14.0605 22.6273H10.2335V13.4889C10.2399 12.9973 10.1502 12.5092 9.96924 12.0517C9.81947 11.6672 9.59291 11.3168 9.30323 11.0217C9.03581 10.7542 8.71417 10.5464 8.35971 10.4121C7.99538 10.2809 7.61075 10.2143 7.22326 10.2151C6.65327 10.2124 6.08658 10.3011 5.54501 10.4778C4.99973 10.6586 4.47942 10.9066 3.99626 11.2161V22.6273H0.166687V0.735107H3.99098L4.01741 8.23394C4.60231 7.78568 5.26922 7.45462 5.98109 7.25915C6.67964 7.05332 7.40385 6.9463 8.13242 6.94122C8.90155 6.93682 9.66549 7.06666 10.3895 7.32483C11.0933 7.57647 11.7361 7.97211 12.2765 8.48618C12.8458 9.03819 13.29 9.70465 13.5795 10.441C13.9166 11.3305 14.0789 12.2759 14.0578 13.2262L14.0605 22.6273Z" fill="#26A191"></path>
<path fill-rule="evenodd" clip-rule="evenodd" d="M30.5818 22.6266H26.7575V21.4652C26.5003 21.7188 26.2096 21.9362 25.8933 22.1116C25.5616 22.298 25.2151 22.4571 24.8572 22.5872C24.4944 22.7178 24.1213 22.8189 23.7419 22.8893C23.3875 22.9581 23.0274 22.9941 22.6663 22.997C21.9027 22.9997 21.1441 22.8745 20.4224 22.6266C19.7154 22.386 19.0678 21.9991 18.5222 21.4915C17.9407 20.9356 17.4895 20.2592 17.2007 19.5104C16.852 18.5872 16.6851 17.606 16.7092 16.6201V7.36353H20.5414V16.4467C20.535 16.9392 20.6248 17.4281 20.8057 17.8866C20.9551 18.2713 21.1817 18.6217 21.4717 18.9166C21.7403 19.187 22.0662 19.3944 22.4258 19.5235C22.7874 19.6546 23.1694 19.7213 23.5543 19.7206C24.7525 19.7366 25.9085 19.2815 26.7707 18.4541V7.36353H30.595L30.5818 22.6266Z" fill="#26A191"></path>
<path fill-rule="evenodd" clip-rule="evenodd" d="M56.505 22.6271H52.6807V13.5149C52.6807 12.4429 52.4164 11.6293 51.8878 11.074C51.3978 10.5328 50.6961 10.229 49.9638 10.2411C48.7888 10.224 47.6506 10.6481 46.7764 11.4287C46.9426 12.1116 47.0225 12.8124 47.0143 13.5149V22.6271H43.1979V13.5149C43.1979 12.4429 42.9336 11.6293 42.405 11.074C41.9224 10.5365 41.2295 10.2327 40.5048 10.2411C39.9759 10.2303 39.451 10.3343 38.9666 10.5459C38.4606 10.7927 37.9968 11.1173 37.5923 11.5075V22.6271H33.768V7.364H37.5923V8.49907C38.0843 8.03243 38.6562 7.65693 39.2811 7.39028C39.904 7.1135 40.5783 6.9694 41.2607 6.96725C42.0368 6.97453 42.8025 7.14558 43.5071 7.4691C44.2661 7.80466 44.9425 8.30047 45.4893 8.9221C46.8637 7.62386 48.7001 6.9208 50.5954 6.96725C51.3684 6.96305 52.1369 7.08373 52.871 7.32459C53.5756 7.5535 54.2171 7.94207 54.7448 8.45966C55.3056 9.02355 55.7405 9.69859 56.0213 10.4408C56.3623 11.3657 56.5246 12.3463 56.4997 13.331L56.505 22.6271Z" fill="#26A191"></path>
<path fill-rule="evenodd" clip-rule="evenodd" d="M91.2445 22.6271H87.4202V13.515C87.4266 13.0234 87.3368 12.5353 87.1559 12.0778C87.0046 11.6903 86.7722 11.3392 86.474 11.0478C86.1973 10.7786 85.8656 10.5716 85.5014 10.4409C85.1385 10.3076 84.7545 10.24 84.3676 10.2412C83.7763 10.2423 83.1897 10.3454 82.6339 10.546C82.059 10.7542 81.5355 11.082 81.0983 11.5076V22.6271H77.2714V7.36408H81.0983L81.1248 8.49915C81.379 8.25272 81.6642 8.0399 81.9731 7.86593C82.3104 7.67252 82.6642 7.50898 83.0303 7.37721C83.3927 7.24447 83.7658 7.14251 84.1456 7.07243C84.5089 7.00368 84.8779 6.9685 85.2477 6.96733C86.0121 6.96466 86.7716 7.0899 87.4942 7.3378C88.2046 7.5795 88.8563 7.96612 89.4076 8.47287C89.9933 9.02839 90.4482 9.70582 90.7397 10.4566C91.0954 11.3737 91.2669 12.3511 91.2445 13.3337V22.6271Z" fill="#26A191"></path>
<path d="M74.4717 8.26948V7.96469C74.4711 7.88734 74.4395 7.81343 74.384 7.75923C74.3284 7.70503 74.2535 7.67497 74.1757 7.67567H71.1523C71.0744 7.67497 70.9995 7.70503 70.944 7.75923C70.8885 7.81343 70.8569 7.88734 70.8562 7.96469V8.25897V8.32991C70.8492 8.39345 70.8049 8.44678 70.7435 8.46562C70.6821 8.48446 70.6152 8.4652 70.5735 8.41662C69.9814 7.82806 68.023 7.28417 66.2391 7.28417C61.9734 7.25527 58.6275 9.8486 58.6275 14.804C58.6275 19.8488 61.8254 22.471 66.1492 22.4421C67.7614 22.4132 69.6088 22.2162 70.8562 20.5766V22.203C70.8569 22.2804 70.8885 22.3543 70.944 22.4085C70.9995 22.4627 71.0744 22.4927 71.1523 22.492H74.1678C74.2456 22.4927 74.3205 22.4627 74.376 22.4085C74.4315 22.3543 74.4631 22.2804 74.4638 22.203V8.27736L74.4717 8.26948ZM66.4373 19.163C63.9186 19.3575 61.8228 17.6995 61.8228 14.804C61.8228 11.9085 63.9133 10.2874 66.4294 10.4766C71.6412 10.8681 71.6465 18.7558 66.4373 19.163Z" fill="#26A191"></path>
<path fill-rule="evenodd" clip-rule="evenodd" d="M22.8957 41.644H19.0794V32.5266C19.0794 31.4511 18.8151 30.6366 18.2865 30.0831C17.795 29.5427 17.0925 29.24 16.3598 29.2528C15.7952 29.2523 15.2346 29.3483 14.7027 29.5366C14.1409 29.7434 13.6228 30.0526 13.1751 30.4483C13.3416 31.1311 13.4215 31.832 13.413 32.5345V41.644H9.59659V32.5266C9.59659 31.4511 9.3323 30.6366 8.80372 30.0831C8.32185 29.5464 7.6297 29.2435 6.90611 29.2528C6.37654 29.2413 5.85078 29.3444 5.36529 29.555C4.85721 29.8035 4.39093 30.1288 3.98305 30.5192V41.644H0.166687V26.381H3.99098V27.516C4.483 27.0494 5.05492 26.6739 5.6798 26.4072C6.30373 26.1307 6.97885 25.9866 7.66198 25.9842C8.43966 25.9902 9.20717 26.1604 9.91374 26.4834C10.6709 26.8221 11.3466 27.3175 11.8959 27.9364C12.6006 27.2891 13.4208 26.7785 14.3142 26.4309C15.1763 26.1243 16.0865 25.9731 17.002 25.9842C17.774 25.9813 18.5415 26.102 19.2749 26.3416C19.9786 26.5725 20.6196 26.9608 21.1488 27.4766C21.709 28.041 22.1438 28.7159 22.4253 29.4577C22.7658 30.3828 22.928 31.3633 22.9036 32.348L22.8957 41.644Z" fill="#26A191"></path>
<path fill-rule="evenodd" clip-rule="evenodd" d="M55.9977 41.645H52.1734V32.5276C52.1798 32.0352 52.09 31.5462 51.9091 31.0878C51.7581 30.7008 51.5266 30.3498 51.2299 30.0578C50.9517 29.7891 50.6193 29.5822 50.2546 29.4509C49.8921 29.3199 49.5092 29.2532 49.1235 29.2538C48.5323 29.254 47.9457 29.3563 47.3897 29.556C46.8105 29.7646 46.2826 30.0933 45.841 30.5202V41.645H42.0273V26.382H45.8515L45.878 27.517C46.1327 27.27 46.4188 27.0571 46.729 26.8838C47.3996 26.4993 48.1318 26.2327 48.8935 26.0956C49.2568 26.0259 49.6257 25.9898 49.9956 25.9878C50.7564 25.9852 51.5122 26.1095 52.2315 26.3557C52.9417 26.5978 53.5934 26.9844 54.145 27.4908C54.7317 28.046 55.1891 28.7222 55.485 29.4719C55.8435 30.3927 56.0151 31.375 55.9897 32.3621L55.9977 41.645Z" fill="#26A191"></path>
<path d="M88.4403 29.3932H86.8202C87.2255 30.1774 87.4349 31.0471 87.4308 31.9287C87.4308 32.6118 87.2999 33.2886 87.0449 33.923C86.7859 34.5687 86.4126 35.1632 85.9428 35.6781C85.4443 36.2223 84.8562 36.6781 84.2038 37.026C83.488 37.4049 82.7105 37.6549 81.9071 37.7643C81.4433 37.811 80.9938 37.9504 80.5856 38.1742C80.2923 38.3581 80.1469 38.5421 80.1469 38.7286C80.1469 38.9152 80.2923 39.0833 80.5856 39.2541C81.0012 39.4439 81.4501 39.551 81.9071 39.5694C83.8893 39.7446 85.4248 40.2377 86.5137 41.0487C87.5648 41.7842 88.1774 42.9925 88.147 44.27C88.153 44.9372 87.9796 45.5939 87.6448 46.1723C87.2861 46.7773 86.7924 47.2924 86.2018 47.6778C85.5095 48.1299 84.7443 48.4605 83.9395 48.6552C82.9705 48.8937 81.9749 49.0085 80.9768 48.9968C79.9646 49.009 78.955 48.8942 77.9718 48.6552C77.1612 48.4598 76.3881 48.1341 75.683 47.691C75.0858 47.3149 74.5867 46.8035 74.2268 46.1986C73.8899 45.6115 73.7166 44.9458 73.7246 44.27C73.6937 43.305 74.0169 42.3618 74.6338 41.6162C75.239 40.9042 76.2195 40.3708 77.5991 40.0187C77.2334 39.903 76.9129 39.6772 76.682 39.3724C76.501 39.1328 76.4077 38.8389 76.4178 38.5394C76.4441 38.2391 76.5706 37.9561 76.7772 37.7354C77.0325 37.457 77.3584 37.2519 77.7207 37.1416C77.2475 36.9244 76.8035 36.6489 76.3992 36.3218C75.9744 35.9821 75.5927 35.5921 75.2628 35.1605C74.9215 34.7122 74.6539 34.2129 74.4699 33.6812C74.2721 33.1216 74.1729 32.5323 74.1766 31.9392C74.1707 31.134 74.3516 30.3383 74.7051 29.6139C75.0553 28.8988 75.5418 28.2581 76.1376 27.7273C76.7542 27.1818 77.4652 26.7518 78.2361 26.4583C79.041 26.1491 79.8971 25.9922 80.7601 25.9958C81.5831 25.9892 82.4011 26.1234 83.1783 26.3926H88.4403V29.3932ZM84.3227 44.2595C84.3319 43.6576 83.9547 43.1167 83.3845 42.9142C82.6165 42.605 81.7915 42.4608 80.9636 42.4912C79.9064 42.4912 79.0712 42.6409 78.4607 42.9405C77.8502 43.24 77.5489 43.6788 77.5489 44.2542C77.5489 44.8296 77.8661 45.3052 78.503 45.6021C80.0835 46.1965 81.8272 46.2012 83.4109 45.6153C83.9662 45.3938 84.3259 44.8542 84.3148 44.2595H84.3227ZM83.6065 31.9287C83.6089 31.5562 83.5324 31.1873 83.3818 30.8462C83.2361 30.5168 83.031 30.2167 82.7766 29.9607C82.52 29.7042 82.2169 29.4982 81.8833 29.3538C81.5384 29.2033 81.1657 29.1263 80.7891 29.1278C80.4175 29.1253 80.0498 29.2023 79.7108 29.3538C79.3823 29.5004 79.0839 29.7062 78.8307 29.9607C78.5747 30.2153 78.3694 30.5158 78.2255 30.8462C78.0737 31.1869 77.9971 31.556 78.0009 31.9287C77.9984 32.3055 78.0749 32.6786 78.2255 33.0244C78.3672 33.3598 78.5727 33.6649 78.8307 33.923C79.0839 34.1775 79.3823 34.3833 79.7108 34.5299C80.0499 34.6805 80.4177 34.7567 80.7891 34.7532C81.1655 34.7556 81.5383 34.6795 81.8833 34.5299C82.2169 34.3854 82.52 34.1795 82.7766 33.923C83.0329 33.6635 83.2382 33.3588 83.3818 33.0244C83.5284 32.6776 83.6021 32.3048 83.5985 31.9287H83.6065Z" fill="#26A191"></path>
<path d="M105.328 33.989C105.328 34.2445 105.314 34.4997 105.286 34.7536C105.259 35.0164 105.23 35.2922 105.196 35.5734H92.9328C93.0765 36.0151 93.2773 36.4364 93.5301 36.8267C93.7836 37.2207 94.1027 37.569 94.4737 37.8567C94.854 38.1527 95.2808 38.3844 95.737 38.5424C96.2348 38.7192 96.7598 38.8081 97.2884 38.8052C97.9944 38.8032 98.695 38.6824 99.3604 38.4479C99.9953 38.2438 100.583 37.916 101.089 37.4836L103.504 39.8851C102.564 40.6112 101.51 41.1777 100.383 41.5614C99.3399 41.8912 98.251 42.0561 97.1562 42.0501C96.0485 42.0591 94.9505 41.8437 93.9292 41.4169C92.9598 41.0145 92.0763 40.4322 91.326 39.7012C90.5862 38.9712 89.9957 38.1057 89.5869 37.1525C88.7375 35.1517 88.7375 32.8946 89.5869 30.8938C89.9975 29.9384 90.5929 29.0725 91.3392 28.3452C92.0913 27.6164 92.9744 27.0345 93.9424 26.6294C94.9499 26.2027 96.0347 25.9863 97.1298 25.9936C98.1948 25.991 99.2503 26.1935 100.238 26.59C101.21 26.9728 102.102 27.5324 102.868 28.2401C104.474 29.7245 105.372 31.8166 105.339 33.9969L105.328 33.989ZM101.316 32.5097C101.042 31.5812 100.48 30.7627 99.7093 30.1713C98.9628 29.5909 98.0403 29.2797 97.0928 29.2885C96.1594 29.2794 95.251 29.5882 94.5186 30.1634C93.7573 30.7591 93.2028 31.5769 92.9328 32.5019L101.316 32.5097Z" fill="#26A191"></path>
<path fill-rule="evenodd" clip-rule="evenodd" d="M118.741 27.9666L116.696 31.1879C116.327 30.7855 115.913 30.4267 115.462 30.1185C115.064 29.8282 114.586 29.6668 114.093 29.6561C113.814 29.6628 113.54 29.7216 113.284 29.8295C112.97 29.9561 112.689 30.1499 112.459 30.397C112.177 30.7027 111.956 31.0595 111.809 31.448C111.619 31.9587 111.529 32.5011 111.545 33.0455V41.6453H107.718V26.3822H111.542V28.0191C111.949 27.4232 112.469 26.9118 113.072 26.5136C113.632 26.162 114.282 25.9794 114.944 25.9881C115.64 25.9944 116.322 26.1819 116.923 26.532C117.599 26.9156 118.212 27.3994 118.741 27.9666Z" fill="#26A191"></path>
<path d="M40.1165 27.2891V26.9869C40.1158 26.9096 40.0842 26.8357 40.0287 26.7815C39.9732 26.7273 39.8983 26.6972 39.8205 26.6979H36.797C36.7194 26.6972 36.6448 26.7273 36.5897 26.7816C36.5346 26.8359 36.5036 26.9098 36.5036 26.9869V27.2733V27.3443C36.4967 27.4086 36.4516 27.4626 36.3891 27.4809C36.3267 27.4993 36.2593 27.4786 36.2182 27.4283C35.6262 26.8398 33.6678 26.2959 31.8838 26.2959C27.6182 26.267 24.2722 28.8629 24.2722 33.8184C24.2722 38.8605 27.4702 41.4854 31.794 41.4565C33.4061 41.4276 35.2535 41.2279 36.5036 39.591V41.2147C36.5036 41.2918 36.5346 41.3658 36.5897 41.42C36.6448 41.4743 36.7194 41.5045 36.797 41.5038H39.8099C39.8877 41.5045 39.9626 41.4744 40.0181 41.4202C40.0736 41.366 40.1052 41.2921 40.1059 41.2147V27.2891H40.1165ZM32.0847 38.1826C29.5634 38.3797 27.4675 36.7217 27.4675 33.8263C27.4675 30.9308 29.5581 29.307 32.0741 29.4962C37.2859 29.9008 37.2912 37.7832 32.0847 38.1826Z" fill="#26A191"></path>
<path d="M72.9502 27.2891V26.9869C72.9488 26.8269 72.8179 26.6979 72.6569 26.6979H69.6281C69.4671 26.6979 69.3362 26.8269 69.3347 26.9869V27.2733V27.3443C69.3268 27.4073 69.2822 27.4598 69.2209 27.4781C69.1597 27.4963 69.0934 27.4768 69.0519 27.4283C68.4599 26.8398 66.5015 26.2959 64.7176 26.2959C60.4519 26.267 57.106 28.8629 57.106 33.8184C57.106 38.8605 60.3039 41.4854 64.6277 41.4565C66.2372 41.4276 68.0873 41.2279 69.3347 39.591V41.2147C69.3362 41.3748 69.4671 41.5038 69.6281 41.5038H72.6542C72.8152 41.5038 72.9461 41.3748 72.9476 41.2147V27.2891H72.9502ZM64.9184 38.1826C62.3971 38.3797 60.3039 36.7217 60.3039 33.8263C60.3039 30.9308 62.3945 29.307 64.9105 29.4962C70.117 29.9008 70.125 37.7832 64.9184 38.1826Z" fill="#26A191"></path>
<path d="M97.288 22.6524C98.4324 22.6524 99.3601 21.7301 99.3601 20.5924C99.3601 19.4547 98.4324 18.5325 97.288 18.5325C96.1437 18.5325 95.216 19.4547 95.216 20.5924C95.216 21.7301 96.1437 22.6524 97.288 22.6524Z" fill="#F26524"></path>
<path d="M105.151 22.6511C106.667 22.6511 107.897 21.4288 107.897 19.9211C107.897 18.4134 106.667 17.1912 105.151 17.1912C103.634 17.1912 102.405 18.4134 102.405 19.9211C102.405 21.4288 103.634 22.6511 105.151 22.6511Z" fill="#F26524"></path>
<path d="M113.948 22.6503C115.971 22.6503 117.611 21.0199 117.611 19.0086C117.611 16.9974 115.971 15.3669 113.948 15.3669C111.925 15.3669 110.285 16.9974 110.285 19.0086C110.285 21.0199 111.925 22.6503 113.948 22.6503Z" fill="#26A191"></path>
</g>
<defs>
<clipPath id="clip0">
<rect width="118.667" height="48.8627" fill="white" transform="translate(0.166687 0.735107)"></rect>
</clipPath>
</defs>
</svg>