<svg width="175" height="40" viewBox="0 0 175 40" fill="none" xmlns="http://www.w3.org/2000/svg" xmlns:xlink="http://www.w3.org/1999/xlink">
<g clip-path="url(#clip0_11815_1873)">
<rect y="-0.000244141" width="175" height="40" fill="url(#pattern0_11815_1873)"></rect>
<path d="M8.50472 31.4585V32.5341H6.46667V33.649H8.26865V34.6854H6.46667V35.8945H8.50472V36.9701H5.12109V31.4585H8.50472Z" fill="#E10A0F"></path>
<path d="M8.96124 32.5891H10.4012L11.3534 35.7139L12.3055 32.5891H13.7377L12.1796 36.9701H10.5193L8.96124 32.5891Z" fill="#E10A0F"></path>
<path d="M16.2398 33.6019C15.7991 33.6019 15.4608 33.8688 15.3821 34.3556H17.066C17.066 33.8767 16.6883 33.6019 16.2398 33.6019ZM18.3408 35.5176C18.1283 36.3734 17.3493 37.0329 16.2555 37.0329C14.965 37.0329 14.0365 36.1693 14.0365 34.7796C14.0365 33.3899 14.9493 32.5263 16.2555 32.5263C17.5381 32.5263 18.4431 33.3742 18.4431 34.7089C18.4431 34.8346 18.4352 34.968 18.4195 35.1015H15.3742C15.4214 35.6746 15.7755 35.9416 16.2083 35.9416C16.586 35.9416 16.7985 35.7532 16.9086 35.5176H18.3408Z" fill="#E10A0F"></path>
<path d="M22.1824 36.9701V34.5912C22.1824 33.9945 21.852 33.6647 21.3405 33.6647C20.829 33.6647 20.4985 33.9945 20.4985 34.5912V36.9701H19.1529V32.5891H20.4985V33.1701C20.766 32.8011 21.2382 32.542 21.8284 32.542C22.8434 32.542 23.5202 33.2329 23.5202 34.4106V36.9701H22.1824Z" fill="#E10A0F"></path>
<path d="M24.6677 35.447V33.704H24.1326V32.5891H24.6677V31.5213H26.0132V32.5891H26.8946V33.704H26.0132V35.4627C26.0132 35.7218 26.1234 35.8317 26.4224 35.8317H26.9024V36.9701H26.2178C25.305 36.9701 24.6677 36.5854 24.6677 35.447Z" fill="#E10A0F"></path>
<path d="M31.2166 35.6982C31.2166 36.4598 30.5398 37.0329 29.4382 37.0329C28.2657 37.0329 27.4788 36.3813 27.4159 35.5333H28.7457C28.7772 35.8395 29.0526 36.0437 29.4224 36.0437C29.7687 36.0437 29.9497 35.8866 29.9497 35.6903C29.9497 34.9837 27.5575 35.4941 27.5575 33.8845C27.5575 33.1387 28.1949 32.5263 29.3438 32.5263C30.4769 32.5263 31.1064 33.1544 31.1929 34.018H29.9497C29.9103 33.7197 29.6821 33.5234 29.3044 33.5234C28.9897 33.5234 28.8165 33.649 28.8165 33.861C28.8165 34.5598 31.1929 34.0651 31.2166 35.6982Z" fill="#E10A0F"></path>
</g>
<defs>
<pattern id="pattern0_11815_1873" patternContentUnits="objectBoundingBox" width="1" height="1">
<use xlink:href="#image0_11815_1873" transform="scale(0.000996016 0.00434783)"></use>
</pattern>
<clipPath id="clip0_11815_1873">
<rect width="175" height="40" fill="white"></rect>
</clipPath>
<image id="image0_11815_1873" width="1004" height="230" preserveAspectRatio="none"></image>
</defs>
</svg>